<svg width="14" height="14" viewBox="0 0 14 14" fill="none" xmlns="http://www.w3.org/2000/svg">
<path fill-rule="evenodd" clip-rule="evenodd" d="M4 1.75H11C11.6904 1.75 12.25 2.30964 12.25 3V10H13.75V3C13.75 1.48122 12.5188 0.25 11 0.25H4V1.75ZM2.5 3.25C1.25736 3.25 0.25 4.25736 0.25 5.5V11.5C0.25 12.7426 1.25736 13.75 2.5 13.75H8.5C9.74264 13.75 10.75 12.7426 10.75 11.5V5.5C10.75 4.25736 9.74264 3.25 8.5 3.25H2.5ZM1.75 5.5C1.75 5.08579 2.08579 4.75 2.5 4.75H8.5C8.91421 4.75 9.25 5.08579 9.25 5.5V11.5C9.25 11.9142 8.91421 12.25 8.5 12.25H2.5C2.08579 12.25 1.75 11.9142 1.75 11.5V5.5Z" fill="#16161660"/>
</svg>
