<svg width="44" height="44" viewBox="0 0 44 44" fill="none" xmlns="http://www.w3.org/2000/svg">
<circle cx="22" cy="22" r="22" fill="url(#paint0_linear_1321_3864)"/>
<circle cx="22" cy="22" r="22" fill="url(#paint1_linear_1321_3864)"/>
<path d="M27.147 10.6209C27.0749 10.2123 26.6853 9.93949 26.2767 10.0115C25.8681 10.0836 25.5953 10.4732 25.6673 10.8818L26.0111 12.8313C25.4036 12.3664 24.7453 12.0301 24.0362 11.8343C23.0324 11.5482 22.0211 11.5626 21.0207 11.8751C20.0192 12.1631 19.1166 12.7249 18.3127 13.5288L16.2168 15.6247C14.9677 16.8738 14.2085 18.2464 14.0357 19.7414C13.8598 21.2392 14.3357 22.559 15.4192 23.6426L16.4394 24.6627C17.3537 25.5771 18.4605 26.0475 19.7245 26.0326L19.7331 26.0325C20.9911 26.0032 22.2421 25.4993 23.4749 24.6112C23.8115 24.3687 23.8878 23.8992 23.6453 23.5625C23.4027 23.2259 22.9332 23.1496 22.5966 23.3921C21.5312 24.1596 20.5702 24.509 19.7025 24.5303C18.8662 24.5391 18.1443 24.2428 17.5018 23.6003L16.4817 22.5801C15.7107 21.8091 15.4075 20.9405 15.528 19.9162L15.5282 19.9145C15.6525 18.8379 16.2039 17.7625 17.2792 16.6871L19.3751 14.5912C20.0277 13.9386 20.7171 13.5244 21.443 13.3171L21.4524 13.3144L21.4618 13.3114C22.1883 13.0831 22.9038 13.0734 23.6269 13.28L23.6338 13.2819C24.1435 13.4223 24.6348 13.6682 25.1076 14.0318L23.2298 14.363C22.8212 14.435 22.5484 14.8246 22.6204 15.2332C22.6925 15.6418 23.0821 15.9147 23.4907 15.8426L27.9297 15.0599L27.147 10.6209Z" fill="white"/>
<path d="M28.4718 24.6522C28.3475 25.7288 27.7961 26.8042 26.7208 27.8796L24.6249 29.9755C23.9723 30.6281 23.2829 31.0423 22.557 31.2497L22.5476 31.2524L22.5382 31.2553C21.8117 31.4837 21.0962 31.4933 20.3731 31.2868L20.3662 31.2848C19.8092 31.1314 19.2742 30.852 18.7613 30.4306L20.7794 30.0748C21.188 30.0027 21.4609 29.6131 21.3888 29.2045C21.3168 28.7959 20.9271 28.5231 20.5185 28.5951L16.0795 29.3778L16.8623 33.8168C16.9343 34.2254 17.3239 34.4982 17.7325 34.4262C18.1411 34.3542 18.414 33.9645 18.3419 33.5559L18.0259 31.7635C18.623 32.2139 19.269 32.5406 19.9638 32.7324C20.9676 33.0185 21.9789 33.0042 22.9793 32.6916C23.9808 32.4036 24.8834 31.8419 25.6873 31.0379L27.7832 28.942C29.0323 27.693 29.7915 26.3203 29.9643 24.8253C30.1402 23.3275 29.6643 22.0077 28.5808 20.9242L27.5606 19.904C26.6463 18.9897 25.5395 18.5192 24.2755 18.5341L24.2669 18.5342C23.0089 18.5635 21.7579 19.0674 20.5251 19.9555C20.1885 20.1981 20.1122 20.6676 20.3547 21.0042C20.5973 21.3408 21.0668 21.4171 21.4034 21.1746C22.4688 20.4071 23.4298 20.0577 24.2975 20.0364C25.1338 20.0276 25.8557 20.3239 26.4982 20.9665L27.5183 21.9866C28.2893 22.7576 28.5925 23.6262 28.472 24.6506L28.4718 24.6522Z" fill="white"/>
<path d="M27.147 10.6209C27.0749 10.2123 26.6853 9.93949 26.2767 10.0115C25.8681 10.0836 25.5953 10.4732 25.6673 10.8818L26.0111 12.8313C25.4036 12.3664 24.7453 12.0301 24.0362 11.8343C23.0324 11.5482 22.0211 11.5626 21.0207 11.8751C20.0192 12.1631 19.1166 12.7249 18.3127 13.5288L16.2168 15.6247C14.9677 16.8738 14.2085 18.2464 14.0357 19.7414C13.8598 21.2392 14.3357 22.559 15.4192 23.6426L16.4394 24.6627C17.3537 25.5771 18.4605 26.0475 19.7245 26.0326L19.7331 26.0325C20.9911 26.0032 22.2421 25.4993 23.4749 24.6112C23.8115 24.3687 23.8878 23.8992 23.6453 23.5625C23.4027 23.2259 22.9332 23.1496 22.5966 23.3921C21.5312 24.1596 20.5702 24.509 19.7025 24.5303C18.8662 24.5391 18.1443 24.2428 17.5018 23.6003L16.4817 22.5801C15.7107 21.8091 15.4075 20.9405 15.528 19.9162L15.5282 19.9145C15.6525 18.8379 16.2039 17.7625 17.2792 16.6871L19.3751 14.5912C20.0277 13.9386 20.7171 13.5244 21.443 13.3171L21.4524 13.3144L21.4618 13.3114C22.1883 13.0831 22.9038 13.0734 23.6269 13.28L23.6338 13.2819C24.1435 13.4223 24.6348 13.6682 25.1076 14.0318L23.2298 14.363C22.8212 14.435 22.5484 14.8246 22.6204 15.2332C22.6925 15.6418 23.0821 15.9147 23.4907 15.8426L27.9297 15.0599L27.147 10.6209Z" stroke="#FDFDFD" stroke-width="0.3" stroke-linecap="round"/>
<path d="M28.4718 24.6522C28.3475 25.7288 27.7961 26.8042 26.7208 27.8796L24.6249 29.9755C23.9723 30.6281 23.2829 31.0423 22.557 31.2497L22.5476 31.2524L22.5382 31.2553C21.8117 31.4837 21.0962 31.4933 20.3731 31.2868L20.3662 31.2848C19.8092 31.1314 19.2742 30.852 18.7613 30.4306L20.7794 30.0748C21.188 30.0027 21.4609 29.6131 21.3888 29.2045C21.3168 28.7959 20.9271 28.5231 20.5185 28.5951L16.0795 29.3778L16.8623 33.8168C16.9343 34.2254 17.3239 34.4982 17.7325 34.4262C18.1411 34.3542 18.414 33.9645 18.3419 33.5559L18.0259 31.7635C18.623 32.2139 19.269 32.5406 19.9638 32.7324C20.9676 33.0185 21.9789 33.0042 22.9793 32.6916C23.9808 32.4036 24.8834 31.8419 25.6873 31.0379L27.7832 28.942C29.0323 27.693 29.7915 26.3203 29.9643 24.8253C30.1402 23.3275 29.6643 22.0077 28.5808 20.9242L27.5606 19.904C26.6463 18.9897 25.5395 18.5192 24.2755 18.5341L24.2669 18.5342C23.0089 18.5635 21.7579 19.0674 20.5251 19.9555C20.1885 20.1981 20.1122 20.6676 20.3547 21.0042C20.5973 21.3408 21.0668 21.4171 21.4034 21.1746C22.4688 20.4071 23.4298 20.0577 24.2975 20.0364C25.1338 20.0276 25.8557 20.3239 26.4982 20.9665L27.5183 21.9866C28.2893 22.7576 28.5925 23.6262 28.472 24.6506L28.4718 24.6522Z" stroke="#FDFDFD" stroke-width="0.3" stroke-linecap="round"/>
<defs>
<linearGradient id="paint0_linear_1321_3864" x1="47" y1="82.5" x2="84.6978" y2="40.731" gradientUnits="userSpaceOnUse">
<stop stop-color="#7869CC"/>
<stop offset="0.615771" stop-color="#5D3792"/>
</linearGradient>
<linearGradient id="paint1_linear_1321_3864" x1="5.5" y1="-8.5" x2="10.5" y2="35.5" gradientUnits="userSpaceOnUse">
<stop stop-color="white"/>
<stop offset="1" stop-color="white" stop-opacity="0"/>
</linearGradient>
</defs>
</svg>
