<svg width="36" height="36" viewBox="0 0 36 36" fill="none" xmlns="http://www.w3.org/2000/svg">
<circle cx="18" cy="18" r="18" fill="url(#paint0_linear_0:1)"/>
<circle cx="18" cy="18" r="18" fill="url(#paint1_linear_0:1)"/>
<path d="M21.7596 8.50816C21.7006 8.17376 21.3817 7.95048 21.0473 8.00944C20.7129 8.06841 20.4896 8.38729 20.5486 8.72169L20.8299 10.3171C20.3328 9.93666 19.794 9.66142 19.2137 9.50121C18.3922 9.26705 17.5645 9.27882 16.7458 9.53459C15.9262 9.77033 15.1875 10.23 14.5295 10.888L12.8142 12.6033C11.792 13.6255 11.1706 14.7489 11.0292 15.9724C10.8852 17.1983 11.2747 18.2783 12.1615 19.1652L12.9964 20C13.7447 20.7484 14.6505 21.1334 15.685 21.1212L15.692 21.1211C16.7216 21.0971 17.7454 20.6847 18.7543 19.9579C19.0298 19.7594 19.0922 19.3752 18.8937 19.0997C18.6953 18.8241 18.311 18.7617 18.0355 18.9602C17.1636 19.5883 16.3771 19.8743 15.667 19.8917C14.9825 19.8989 14.3918 19.6564 13.8659 19.1305L13.031 18.2957C12.4 17.6647 12.1519 16.9538 12.2506 16.1154L12.2507 16.1141C12.3524 15.233 12.8037 14.3529 13.6837 13.4728L15.399 11.7575C15.9331 11.2234 16.4973 10.8844 17.0914 10.7147L17.0991 10.7125L17.1068 10.7101C17.7014 10.5232 18.287 10.5153 18.8787 10.6843L18.8844 10.6859C19.3015 10.8008 19.7036 11.0021 20.0905 11.2997L18.5537 11.5707C18.2193 11.6296 17.996 11.9485 18.055 12.2829C18.114 12.6173 18.4328 12.8406 18.7672 12.7816L22.4001 12.1411L21.7596 8.50816Z" fill="white"/>
<path d="M22.8438 19.9915C22.7421 20.8726 22.2908 21.7527 21.4108 22.6328L19.6955 24.3481C19.1614 24.8822 18.5972 25.2211 18.0031 25.3909L17.9954 25.3931L17.9877 25.3955C17.3931 25.5824 16.8075 25.5903 16.2158 25.4212L16.2101 25.4196C15.7543 25.2941 15.3165 25.0654 14.8967 24.7206L16.5483 24.4293C16.8827 24.3704 17.106 24.0515 17.047 23.7171C16.9881 23.3827 16.6692 23.1594 16.3348 23.2184L12.7019 23.8589L13.3425 27.4918C13.4014 27.8262 13.7203 28.0495 14.0547 27.9906C14.3891 27.9316 14.6124 27.6127 14.5535 27.2783L14.2948 25.8114C14.7835 26.18 15.3122 26.4474 15.8808 26.6043C16.7023 26.8385 17.53 26.8267 18.3487 26.571C19.1683 26.3352 19.907 25.8755 20.565 25.2176L22.2803 23.5023C23.3025 22.48 23.9239 21.3567 24.0653 20.1331C24.2093 18.9073 23.8198 17.8272 22.933 16.9404L22.0981 16.1055C21.3498 15.3572 20.444 14.9722 19.4095 14.9843L19.4025 14.9845C18.3729 15.0084 17.3491 15.4208 16.3402 16.1477C16.0647 16.3462 16.0023 16.7304 16.2008 17.0059C16.3992 17.2814 16.7835 17.3439 17.059 17.1454C17.9309 16.5172 18.7174 16.2313 19.4275 16.2139C20.112 16.2067 20.7027 16.4492 21.2286 16.975L22.0635 17.8099C22.6945 18.4409 22.9426 19.1518 22.8439 19.9901L22.8438 19.9915Z" fill="white"/>
<path d="M21.7596 8.50816C21.7006 8.17376 21.3817 7.95048 21.0473 8.00944C20.7129 8.06841 20.4896 8.38729 20.5486 8.72169L20.8299 10.3171C20.3328 9.93666 19.794 9.66142 19.2137 9.50121C18.3922 9.26705 17.5645 9.27882 16.7458 9.53459C15.9262 9.77033 15.1875 10.23 14.5295 10.888L12.8142 12.6033C11.792 13.6255 11.1706 14.7489 11.0292 15.9724C10.8852 17.1983 11.2747 18.2783 12.1615 19.1652L12.9964 20C13.7447 20.7484 14.6505 21.1334 15.685 21.1212L15.692 21.1211C16.7216 21.0971 17.7454 20.6847 18.7543 19.9579C19.0298 19.7594 19.0922 19.3752 18.8937 19.0997C18.6953 18.8241 18.311 18.7617 18.0355 18.9602C17.1636 19.5883 16.3771 19.8743 15.667 19.8917C14.9825 19.8989 14.3918 19.6564 13.8659 19.1305L13.031 18.2957C12.4 17.6647 12.1519 16.9538 12.2506 16.1154L12.2507 16.1141C12.3524 15.233 12.8037 14.3529 13.6837 13.4728L15.399 11.7575C15.9331 11.2234 16.4973 10.8844 17.0914 10.7147L17.0991 10.7125L17.1068 10.7101C17.7014 10.5232 18.287 10.5153 18.8787 10.6843L18.8844 10.6859C19.3015 10.8008 19.7036 11.0021 20.0905 11.2997L18.5537 11.5707C18.2193 11.6296 17.996 11.9485 18.055 12.2829C18.114 12.6173 18.4328 12.8406 18.7672 12.7816L22.4001 12.1411L21.7596 8.50816Z" stroke="white" stroke-width="0.3" stroke-linecap="round"/>
<path d="M22.8438 19.9915C22.7421 20.8726 22.2908 21.7527 21.4108 22.6328L19.6955 24.3481C19.1614 24.8822 18.5972 25.2211 18.0031 25.3909L17.9954 25.3931L17.9877 25.3955C17.3931 25.5824 16.8075 25.5903 16.2158 25.4212L16.2101 25.4196C15.7543 25.2941 15.3165 25.0654 14.8967 24.7206L16.5483 24.4293C16.8827 24.3704 17.106 24.0515 17.047 23.7171C16.9881 23.3827 16.6692 23.1594 16.3348 23.2184L12.7019 23.8589L13.3425 27.4918C13.4014 27.8262 13.7203 28.0495 14.0547 27.9906C14.3891 27.9316 14.6124 27.6127 14.5535 27.2783L14.2948 25.8114C14.7835 26.18 15.3122 26.4474 15.8808 26.6043C16.7023 26.8385 17.53 26.8267 18.3487 26.571C19.1683 26.3352 19.907 25.8755 20.565 25.2176L22.2803 23.5023C23.3025 22.48 23.9239 21.3567 24.0653 20.1331C24.2093 18.9073 23.8198 17.8272 22.933 16.9404L22.0981 16.1055C21.3498 15.3572 20.444 14.9722 19.4095 14.9843L19.4025 14.9845C18.3729 15.0084 17.3491 15.4208 16.3402 16.1477C16.0647 16.3462 16.0023 16.7304 16.2008 17.0059C16.3992 17.2814 16.7835 17.3439 17.059 17.1454C17.9309 16.5172 18.7174 16.2313 19.4275 16.2139C20.112 16.2067 20.7027 16.4492 21.2286 16.975L22.0635 17.8099C22.6945 18.4409 22.9426 19.1518 22.8439 19.9901L22.8438 19.9915Z" stroke="white" stroke-width="0.3" stroke-linecap="round"/>
<defs>
<linearGradient id="paint0_linear_0:1" x1="35.325" y1="-3.46598e-06" x2="-2.176" y2="6.90302" gradientUnits="userSpaceOnUse">
<stop stop-color="#2663FF"/>
<stop offset="1" stop-color="#FF3828"/>
</linearGradient>
<linearGradient id="paint1_linear_0:1" x1="18" y1="36" x2="18" y2="18" gradientUnits="userSpaceOnUse">
<stop stop-color="#798FFF" stop-opacity="0.6"/>
<stop offset="1" stop-color="#000AFF" stop-opacity="0"/>
</linearGradient>
</defs>
</svg>
