<svg width="32" height="32" viewBox="0 0 40 40" fill="none" xmlns="http://www.w3.org/2000/svg">
<path fill-rule="evenodd" clip-rule="evenodd" d="M20 40C31.0457 40 40 31.0457 40 20C40 8.9543 31.0457 0 20 0C8.9543 0 0 8.9543 0 20C0 31.0457 8.9543 40 20 40Z" fill="#EB1312"/>
<path fill-rule="evenodd" clip-rule="evenodd" d="M26.851 13.5938C26.5038 13.2467 25.941 13.2467 25.5939 13.5938L13.5939 25.5938C13.2468 25.941 13.2468 26.5038 13.5939 26.8509C13.941 27.1981 14.5038 27.1981 14.851 26.8509L26.851 14.8509C27.1981 14.5038 27.1981 13.941 26.851 13.5938Z" fill="white"/>
<path fill-rule="evenodd" clip-rule="evenodd" d="M13.149 13.5941C13.4962 13.247 14.059 13.247 14.4061 13.5941L26.4061 25.5941C26.7532 25.9412 26.7532 26.504 26.4061 26.8512C26.059 27.1983 25.4962 27.1983 25.149 26.8512L13.149 14.8512C12.8019 14.504 12.8019 13.9412 13.149 13.5941Z" fill="white"/>
</svg>
